Coordinates
version=1
nRows=19
nColumns=24
inDegrees=yes

Units are S.I. units (second, meters, Newtons, ...)
Angles are in degrees.

endheader
time	pelvis_tilt	pelvis_list	pelvis_rotation	pelvis_tx	pelvis_ty	pelvis_tz	hip_flexion_r	hip_adduction_r	hip_rotation_r	knee_angle_r	ankle_angle_r	subtalar_angle_r	mtp_angle_r	hip_flexion_l	hip_adduction_l	hip_rotation_l	knee_angle_l	ankle_angle_l	subtalar_angle_l	mtp_angle_l	lumbar_extension	lumbar_bending	lumbar_rotation
      1.08000000	      6.45870668	     -7.11021719	     -2.16333495	     -0.56143166	      0.89583776	      0.04408617	    -27.21493847	      8.42247868	     -1.76277796	    -12.98965992	     12.73280677	      6.01988681	     51.49117474	     15.26061217	     -5.09961399	     -5.85146219	     -2.93631556	     12.09055803	      1.37814814	     27.91777364	    -16.16517739	      6.28142052	      3.61430585
      1.08500000	      6.25919440	     -6.94196377	     -2.18994952	     -0.55319986	      0.89473428	      0.04390800	    -26.81686613	      8.13697195	     -1.73824301	    -14.23339913	     12.28883332	      6.15716055	     52.44278313	     15.54378266	     -4.84152014	     -5.59068709	     -3.69227472	     11.62120141	      0.76861882	     29.43734535	    -15.90235276	      6.09135182	      3.42641654
      1.09000000	      6.11245893	     -6.71688454	     -2.22131189	     -0.54496066	      0.89375794	      0.04369964	    -26.40954526	      7.77788371	     -1.76049962	    -15.56942541	     11.73883194	      6.40200063	     53.98276671	     15.77797024	     -4.51879207	     -5.36720538	     -4.54382355	     11.18211521	      0.14730234	     30.33164356	    -15.69572833	      5.83408163	      3.24725988
      1.09500000	      5.95178882	     -6.46618579	     -2.27189760	     -0.53676590	      0.89282692	      0.04352143	    -25.90987965	      7.39541231	     -1.71599990	    -17.02185986	     11.08937577	      6.46443474	     56.00015488	     16.04470560	     -4.17598433	     -5.16866165	     -5.48478888	     10.74341873	     -0.50577364	     31.37335026	    -15.47936120	      5.54268187	      3.05745939
      1.10000000	      5.70460405	     -6.19469335	     -2.16005052	     -0.52865768	      0.89177539	      0.04309021	    -25.23636209	      7.06024562	     -1.86654047	    -18.58828619	     10.39383572	      6.67315817	     57.21842448	     16.49015326	     -3.76614662	     -4.72738010	     -6.56918871	     10.18969440	     -1.19137996	     31.90204482	    -15.16100422	      5.27065236	      2.69822189
      1.10500000	      5.46890652	     -5.86314620	     -2.11392085	     -0.52058388	      0.89080486	      0.04274470	    -24.48471687	      6.64254028	     -1.94248662	    -20.29491139	      9.61847257	      6.64623295	     59.41259076	     16.91423571	     -3.30964386	     -4.38891389	     -7.69195174	      9.67762627	     -1.93353479	     32.97703639	    -14.86224229	      4.91239942	      2.37942441
      1.11000000	      5.20542925	     -5.52337277	     -2.01618590	     -0.51261321	      0.88986043	      0.04228845	    -23.61454622	      6.22923185	     -2.08191738	    -22.12352156	      8.70998027	      6.72173631	     61.28294947	     17.39510843	     -2.82995919	     -3.97367266	     -8.86625420	      9.05793888	     -2.63776769	     33.92814219	    -14.54168214	      4.55904652	      2.04836301
      1.11500000	      4.88278072	     -5.15384508	     -1.79703022	     -0.50474462	      0.88881616	      0.04165949	    -22.60139394	      5.83831026	     -2.32894370	    -24.07401364	      7.80443667	      6.70776230	     62.25242884	     18.00207327	     -2.27782839	     -3.36593124	    -10.15256219	      8.53257969	     -3.36480374	     34.32340098	    -14.15752143	      4.19768018	      1.56348937
      1.12000000	      4.53339177	     -4.72883024	     -1.67356347	     -0.49693277	      0.88779537	      0.04109261	    -21.45381435	      5.33864296	     -2.50307053	    -26.19912716	      6.90944273	      6.84439820	     63.05883864	     18.62093929	     -1.68788156	     -2.88636035	    -11.46068855	      8.12417567	     -4.11437801	     34.58361396	    -13.75361135	      3.76026886	      1.17062210
      1.12500000	      4.17365481	     -4.30169417	     -1.45780447	     -0.48922859	      0.88676910	      0.04043172	    -20.23646351	      4.88070433	     -2.71841520	    -28.38296624	      5.82981358	      6.62241394	     64.08262893	     19.28127080	     -1.06803530	     -2.30836926	    -12.81649446	      7.70225831	     -4.82639061	     34.93982409	    -13.34785098	      3.33047809	      0.68760003
      1.13000000	      3.83138146	     -3.83090227	     -1.27733671	     -0.48156618	      0.88582956	      0.03982173	    -18.96745910	      4.35940703	     -2.90084363	    -30.65796938	      4.67851018	      6.31314283	     65.09047468	     19.89315429	     -0.41617477	     -1.82177800	    -14.14429899	      7.34121400	     -5.45741356	     35.29436608	    -12.96778880	      2.84113758	      0.24556386
      1.13500000	      3.56660524	     -3.32252999	     -1.07074627	     -0.47390304	      0.88502799	      0.03925946	    -17.74834895	      3.80517180	     -3.11369389	    -32.94279764	      3.35798470	      5.74389057	     66.98650283	     20.40232558	      0.26497947	     -1.43064157	    -15.45545212	      7.05019552	     -5.88546179	     36.08550964	    -12.67703125	      2.29699531	     -0.25287113
      1.14000000	      3.32583368	     -2.76292594	     -0.95847455	     -0.46635434	      0.88429902	      0.03872911	    -16.46425882	      3.15798558	     -3.22597504	    -35.36926424	      2.17132067	      5.24472569	     67.08513716	     20.81992966	      0.98860311	     -1.06973904	    -16.66215620	      6.84862497	     -6.52482654	     36.06926652	    -12.43000579	      1.68705765	     -0.57435478
      1.14500000	      3.04324986	     -2.22587691	     -0.80179162	     -0.45885270	      0.88353726	      0.03819750	    -15.09918659	      2.55363976	     -3.34625548	    -37.80584605	      0.87641244	      4.59979334	     67.12167792	     21.28838094	      1.68627277	     -0.73967240	    -17.88523329	      6.76890426	     -6.94002978	     36.04953661	    -12.14100561	      1.10619452	     -0.97051123
      1.15000000	      2.85111720	     -1.63777515	     -0.68869098	     -0.45136223	      0.88293519	      0.03775363	    -13.79908867	      1.88487063	     -3.42516388	    -40.25246575	     -0.34371575	      3.76778524	     66.97001187	     21.59211394	      2.41345218	     -0.51353117	    -19.00001781	      6.83320725	     -7.29815571	     35.97289399	    -11.95775187	      0.45392175	     -1.30538984
      1.15500000	      2.62861449	     -1.08600333	     -0.57009006	     -0.44393531	      0.88234320	      0.03731936	    -12.43500915	      1.25950396	     -3.47304458	    -42.68212111	     -1.62688029	      2.88131151	     66.53431800	     21.90628513	      3.09483659	     -0.31704258	    -20.07676746	      6.95220744	     -7.55792796	     35.78808030	    -11.74786426	     -0.15543102	     -1.62482788
      1.16000000	      2.49252873	     -0.50177841	     -0.49546407	     -0.43651700	      0.88192539	      0.03699048	    -11.14901631	      0.60395330	     -3.45814548	    -45.07486631	     -2.75840122	      1.77514128	     65.83254840	     22.05768641	      3.78378014	     -0.21281958	    -21.03793407	      7.23309855	     -7.76656762	     35.53702418	    -11.63757252	     -0.81383939	     -1.89758733
      1.16500000	      2.26052492	      0.04140097	     -0.36621228	     -0.42914999	      0.88140116	      0.03661761	     -9.73614934	     -0.00313536	     -3.48862997	    -47.46667609	     -3.64042824	      0.96126658	     63.35081396	     22.30441895	      4.42960253	     -0.11068297	    -21.99350266	      7.69026816	     -7.59087908	     34.52137955	    -11.42287080	     -1.41699061	     -2.19555805
      1.17000000	      2.21237456	      0.57876109	     -0.32484307	     -0.42180763	      0.88127819	      0.03644364	     -8.52133973	     -0.58850212	     -3.38956957	    -49.73856403	     -4.53018552	     -0.21639025	     61.26461579	     22.26152514	      5.02288435	     -0.15729714	    -22.78528968	      8.18707615	     -7.48580398	     33.69569841	    -11.42241178	     -2.03417341	     -2.42371245
